<?xml version="1.0" encoding="UTF-8" standalone="no"?>
<svg xmlns:svg="http://www.w3.org/2000/svg"
    xmlns="http://www.w3.org/2000/svg" version="1.0" width="60" height="60" fill="currentColor"
    viewBox="0 0 1000 1000" xml:space="preserve">
	<path d="M384 160c10.604 0 19.2 8.596 19.2 19.2v392.215c51.174-41.009 105.303-62.843 150.764-65.774 27.635-1.784 53.724 3.372 73.454 17.577 20.457 14.728 31.782 37.576 31.782 65.582 0 28.152-12.928 55.846-31.050 80.863-18.314 25.28-43.269 49.679-70.482 71.67-54.262 43.85-120.253 80.302-167.596 96.082-5.855 1.953-12.293 0.97-17.298-2.639-5.007-3.607-7.974-9.403-7.974-15.575v-640c0-10.604 8.596-19.2 19.2-19.2zM403.2 622.469v168.745c39.549-17.126 88.486-45.932 130.332-79.747 25.587-20.677 47.831-42.678 63.519-64.33 15.877-21.916 23.749-41.69 23.749-58.337 0-16.794-6.275-27.546-15.818-34.419-10.271-7.393-26.58-11.837-48.545-10.422-42.388 2.737-99.674 27.131-153.236 78.51z"
	/>
</svg>