<svg fill="currentColor" height="60px" width="60px" viewBox="60 0 1000 1000"
	xmlns:svg="http://www.w3.org/2000/svg"
	xmlns="http://www.w3.org/2000/svg"
	xml:space="preserve">
<path d="M678.4 147.2v652.8c0 34.406-23.767 62.006-54.515 79.941-31.217 18.212-73.080 28.859-118.285 28.859s-87.068-10.647-118.285-28.859c-30.748-17.935-54.515-45.535-54.515-79.941s23.767-62.006 54.515-79.941c31.217-18.212 73.080-28.859 118.285-28.859s87.068 10.647 118.285 28.859c5.642 3.29 11.049 6.907 16.115 10.829v-583.688c0-10.604 8.596-19.2 19.2-19.2s19.2 8.596 19.2 19.2zM640 800c0-15.078-10.619-32.279-35.464-46.771-24.371-14.218-59.31-23.629-98.936-23.629s-74.565 9.411-98.936 23.629c-24.845 14.492-35.464 31.693-35.464 46.771s10.619 32.279 35.464 46.771c24.371 14.218 59.31 23.629 98.936 23.629s74.565-9.411 98.936-23.629c24.845-14.492 35.464-31.693 35.464-46.771z" />
</svg>