<svg xmlns:svg="http://www.w3.org/2000/svg"
    xmlns="http://www.w3.org/2000/svg" fill="currentColor" height="60px" width="60px"
    viewBox="90 0 1000 1000" xml:space="preserve">
    <path
        d="M678.4 147.2v0.088c84.503 1.187 153.329 14.62 201.295 55.734 51.113 43.811 73.905 114.814 73.905 219.378 0 6.316-3.049 11.919-7.757 15.419 5.238 27.576 7.757 58.624 7.757 93.381 0 10.604-8.596 19.2-19.2 19.2s-19.2-8.596-19.2-19.2c0-100.237-22.008-157.233-60.495-190.223-37.32-31.987-94.367-45.263-176.305-46.484v505.508c0 34.406-23.767 62.006-54.515 79.941-31.217 18.212-73.080 28.859-118.285 28.859s-87.068-10.647-118.285-28.859c-30.748-17.935-54.515-45.535-54.515-79.941s23.767-62.006 54.515-79.941c31.217-18.212 73.080-28.859 118.285-28.859s87.068 10.647 118.285 28.859c5.642 3.29 11.049 6.907 16.115 10.829v-583.688c0-10.604 8.596-19.2 19.2-19.2s19.2 8.596 19.2 19.2zM909.722 345.252c-8.76-54.292-27.756-89.706-55.017-113.074-37.32-31.989-94.367-45.265-176.305-46.484v70.394c84.503 1.188 153.329 14.62 201.295 55.736 11.395 9.766 21.384 20.887 30.026 33.428z"
    ></path>
</svg>