<svg version="1.0" width="60" height="60" fill="currentColor" viewBox="90 0 1000 1000"
    xmlns="http://www.w3.org/2000/svg">
    <path
        d="M 493.61 107.806 C 504.214 107.806 512.81 116.402 512.81 127.006 L 512.81 779.807 C 512.81 814.213 489.043 841.813 458.295 859.748 C 427.078 877.96 385.215 888.607 340.01 888.607 C 294.805 888.607 252.942 877.96 221.725 859.748 C 190.977 841.813 167.21 814.213 167.21 779.807 C 167.21 745.401 190.977 717.801 221.725 699.866 C 252.942 681.654 294.805 671.007 340.01 671.007 C 385.215 671.007 427.078 681.654 458.295 699.866 C 463.937 703.156 469.344 706.773 474.41 710.695 L 474.41 127.007 C 474.41 116.403 483.006 107.807 493.61 107.807 L 493.61 107.806 Z"
    ></path>
    <path
        d="M 975.839 110.229 C 986.443 110.229 995.039 118.825 995.039 129.429 L 995.039 782.23 C 995.039 816.636 971.272 844.236 940.524 862.171 C 909.307 880.383 867.444 891.03 822.239 891.03 C 777.034 891.03 735.171 880.383 703.954 862.171 C 673.206 844.236 649.439 816.636 649.439 782.23 C 649.439 747.824 673.206 720.224 703.954 702.289 C 735.171 684.077 777.034 673.43 822.239 673.43 C 867.444 673.43 909.307 684.077 940.524 702.289 C 946.166 705.579 951.573 709.196 956.639 713.118 L 956.639 129.43 C 956.639 118.826 965.235 110.23 975.839 110.23 L 975.839 110.229 Z"></path>
    <path d="M 493.718 107.914 L 975.615 110.337 L 976.107 131.664 L 486.607 128.433"></path>
</svg>