<?xml version="1.0" encoding="UTF-8"?>
<svg version="1.0" width="60" height="60" fill="currentColor" viewBox="0 -50 1000 1000"
    xmlns="http://www.w3.org/2000/svg">
    <path
        d="M 470.651 345.987 C 480.661 334.603 486.4 321.35 486.4 307.2 C 486.4 264.783 434.824 230.4 371.2 230.4 C 307.576 230.4 256 264.783 256 307.2 C 256 322.099 262.364 336.008 273.38 347.784 C 276.35 351.186 279.721 354.189 283.239 356.798 C 304.372 373.438 335.937 384.001 371.201 384.001 C 371.449 384.001 371.698 384.001 371.946 383.998 C 397.41 386.742 426.221 387.334 456.825 385.506 C 532.54 380.985 622.047 361.47 702.595 320.244 L 475.031 810.271 C 469.192 819.121 470.818 825.339 480.481 836.872 C 490.144 848.405 501.24 840.272 507.082 831.422 L 784.026 266.576 C 789.213 258.717 787.933 248.252 781.003 241.874 C 774.073 235.496 763.539 235.086 756.135 240.907 C 672.825 306.402 563.416 337.872 470.651 345.988 L 470.651 345.987 Z"
    ></path>
</svg>