<?xml version="1.0" encoding="UTF-8"?>
<svg xmlns:svg="http://www.w3.org/2000/svg"
	xmlns="http://www.w3.org/2000/svg" version="1.0" width="60" height="60" fill="currentColor"
	viewBox="90 0 1000 1000" xml:space="preserve">
	<path d="M659.2 128c10.604 0 19.2 8.596 19.2 19.2v0.088c84.503 1.187 153.329 14.62 201.295 55.734 51.113 43.811 73.905 114.814 73.905 219.378 0 10.604-8.596 19.2-19.2 19.2s-19.2-8.596-19.2-19.2c0-100.237-22.008-157.233-60.495-190.222-37.32-31.989-94.367-45.265-176.305-46.484v614.307c0 34.406-23.767 62.006-54.515 79.941-31.217 18.212-73.080 28.859-118.285 28.859s-87.068-10.647-118.285-28.859c-30.748-17.935-54.515-45.535-54.515-79.941s23.767-62.006 54.515-79.941c31.217-18.212 73.080-28.859 118.285-28.859s87.068 10.647 118.285 28.859c5.642 3.29 11.049 6.907 16.115 10.829v-583.688c0-10.604 8.596-19.2 19.2-19.2z"
	/>
</svg>