<?xml version="1.0" encoding="UTF-8" standalone="no"?>
<svg xmlns:svg="http://www.w3.org/2000/svg"
    xmlns="http://www.w3.org/2000/svg" version="1.0" width="60" height="60" fill="currentColor"
    viewBox="70 -50 900 900" xml:space="preserve">
	<path d="M409.6 185.6c10.604 0 19.2 8.596 19.2 19.2v203.761l205.128-68.375c5.855-1.951 12.293-0.97 17.298 2.639 5.007 3.607 7.974 9.403 7.974 15.575v204.357c0.008 0.297 0.008 0.594 0 0.891v268.352c0 10.604-8.596 19.2-19.2 19.2s-19.2-8.596-19.2-19.2v-242.161l-205.128 68.375c-5.855 1.953-12.293 0.97-17.298-2.639-5.007-3.607-7.974-9.403-7.974-15.575v-435.2c0-10.604 8.596-19.2 19.2-19.2zM620.8 549.361v-164.321l-192 64v164.321l192-64z"
	/>
</svg>