<svg fill="currentColor" height="60px" width="60px" strokeWidth="2" viewBox="-50 0 1000 1000"
    xmlns:svg="http://www.w3.org/2000/svg"
    xmlns="http://www.w3.org/2000/svg"
    xml:space="preserve">
    <path d="M446.026 138.243c8.481-6.364 20.516-4.648 26.88 3.834l105.651 140.801c5.376 7.163 5.084 17.088-0.699 23.926l-130.447 154.163 169.011 205.228c5.891 7.155 5.832 17.498-0.143 24.584s-16.156 8.891-24.205 4.293c-43.379-24.788-88.333-39.816-123.592-38.802-17.311 0.497-31.26 4.815-41.81 12.654-10.368 7.703-19.121 20.029-24.044 39.734-4.544 18.176 1.915 41.39 16.822 67.395 14.531 25.347 34.982 49.71 52.26 68.585 7.16 7.821 6.625 19.965-1.198 27.126-7.821 7.16-19.965 6.625-27.126-1.198-17.874-19.525-40.596-46.362-57.249-75.415-16.279-28.396-29.018-62.781-20.764-95.805 6.715-26.862 19.784-47.416 38.4-61.245 18.429-13.693 40.627-19.553 63.606-20.214 21.609-0.622 44.785 3.313 68.129 10.463l-127.928-155.341c-5.901-7.165-5.832-17.523 0.164-24.607l130.913-154.716-96.466-128.559c-6.364-8.482-4.646-20.517 3.835-26.881z" />
</svg>