<svg fill="currentColor" height="60px" width="60px" viewBox="0 -20 1000 1000"
    xmlns="http://www.w3.org/2000/svg">
    <path
        d="M 422.4 358.4 L 423.145 358.397 C 448.609 361.141 477.42 361.733 508.024 359.905 C 583.739 355.384 673.246 335.869 753.794 294.643 L 710.307 372.406 C 627.038 437.732 512.096 465.881 419.45 473.986 C 429.46 462.602 435.199 449.349 435.199 435.199 C 435.199 392.782 383.623 358.399 319.999 358.399 C 256.375 358.399 204.799 392.782 204.799 435.199 C 204.799 450.098 211.164 464.007 222.179 475.783 C 225.148 479.185 228.521 482.188 232.038 484.797 C 253.17 501.434 284.735 512 319.999 512 C 320.247 512 320.496 512 320.744 511.997 C 346.208 514.741 375.019 515.333 405.623 513.505 C 481.437 508.976 598.725 479.662 679.358 438.321 L 455.133 906.822 C 449.309 915.685 451.774 927.589 460.634 933.413 C 469.497 939.237 481.401 936.772 487.225 927.912 L 533.077 831.026 L 829.534 238.539 C 834.721 230.678 839.132 222.653 832.202 216.275 C 825.272 209.897 814.738 209.487 807.334 215.308 C 724.024 280.803 614.615 312.273 521.85 320.389 C 531.86 309.005 537.599 295.752 537.599 281.602 C 537.599 239.187 486.023 204.802 422.399 204.802 C 358.775 204.802 307.199 239.187 307.199 281.602 C 307.199 296.501 313.563 310.41 324.579 322.186 C 327.549 325.588 330.92 328.591 334.438 331.2 C 355.571 347.837 387.136 358.403 422.4 358.403 L 422.4 358.4 Z"
    ></path>
</svg>