<svg fill="currentColor" height="60px" width="60px" strokeWidth="2" viewBox="-10 0 1000 1000"
    xmlns:svg="http://www.w3.org/2000/svg"
    xmlns="http://www.w3.org/2000/svg"
    xml:space="preserve">
    <path d="M633.651 425.984c-23.347-22.118-57.549-34.406-102.605-36.864l121.651-152.986v-31.334h-276.48v39.322h219.955l-119.194 149.3v32.563h30.72c38.912 0 67.994 7.578 87.245 22.733s28.877 36.045 28.877 62.669c0 27.034-9.626 48.333-28.877 63.898-19.251 15.155-46.49 22.733-81.715 22.733-27.034 0-52.429-4.506-76.186-13.517-23.757-9.421-42.803-21.504-57.139-36.25l-21.504 35.021c16.794 16.794 38.912 30.31 66.355 40.55 27.853 9.83 57.344 14.746 88.474 14.746 33.587 0 62.054-5.53 85.402-16.589s40.96-26.010 52.838-44.851c11.878-19.251 17.818-41.165 17.818-65.741 0-35.226-11.878-63.693-35.635-85.402z" />
    <path d="M83.2 600.166h224v38.4h-185.6v185.6h-38.4v-224z" />
    <path d="M940.8 600.166h-224v38.4h185.6v185.6h38.4v-224z"/>
</svg>