<svg xmlns="http://www.w3.org/2000/svg"
    width="60"
    height="60"
    viewBox="-50 -65 200 200"><path d="M3.00,0.60c0.60,-0.30 1.50,-0.60 1.80,-0.60c0.60,0.00 28.50,7.20 62.40,15.90l63.30,16.50c3.30,0.60 4.50,2.10 4.50,5.10c0.00,3.00 -1.20,4.50 -4.50,5.10l-63.30,16.50c-33.90,8.70 -61.80,15.90 -62.10,15.90c-2.10,0.00 -4.80,-2.40 -5.10,-4.50c0.00,-1.50 0.60,-3.60 1.80,-4.50c0.90,-0.60 8.70,-2.70 38.40,-10.50c20.40,-5.40 38.40,-9.90 40.20,-10.20c1.50,-0.60 11.40,-2.40 22.20,-4.20c10.50,-1.80 19.20,-3.60 19.20,-3.60c0.00,0.00 -8.70,-1.80 -19.20,-3.60c-10.80,-1.80 -20.70,-3.60 -22.20,-4.20c-1.80,-0.30 -19.80,-4.80 -40.20,-10.20c-29.70,-7.80 -37.50,-9.90 -38.40,-10.50c-1.20,-0.90 -1.80,-3.00 -1.80,-4.50c0.30,-1.50 1.50,-3.00 3.00,-3.90z" fill="currentColor"/></svg>
