<?xml version="1.0" encoding="UTF-8" standalone="no"?>
<svg
    xmlns="http://www.w3.org/2000/svg" version="1.0" width="60" height="60" fill="currentColor"
    viewBox="-40 -120 1100 1100" xml:space="preserve">
	<path d="M640.005 134.4c10.606 0 19.2 8.596 19.2 19.2v174.41l179.098-64.476c9.976-3.592 20.977 1.585 24.568 11.564 3.592 9.976-1.585 20.977-11.564 24.568l-192.102 69.156v163.988l179.098-64.476c9.976-3.592 20.977 1.585 24.568 11.564 3.592 9.976-1.585 20.977-11.564 24.568l-192.102 69.156v258.378c0 10.604-8.594 19.2-19.2 19.2-10.604 0-19.2-8.596-19.2-19.2v-244.554l-192 69.12v226.634c0 10.604-8.594 19.2-19.2 19.2-10.604 0-19.2-8.596-19.2-19.2v-212.81l-179.097 64.476c-9.977 3.592-20.977-1.585-24.568-11.564-3.592-9.976 1.585-20.977 11.561-24.568l192.103-69.156v-163.988l-179.097 64.476c-9.977 3.592-20.977-1.585-24.568-11.564-3.592-9.976 1.585-20.977 11.561-24.568l192.103-69.156v-219.978c0-10.604 8.596-19.2 19.2-19.2 10.606 0 19.2 8.596 19.2 19.2v206.154l192-69.12v-188.234c0-10.604 8.596-19.2 19.2-19.2zM620.805 382.646l-192 69.12v163.988l192-69.12v-163.988z"
	/>
</svg>