<svg version="1.0" width="60" height="60" fill="currentColor" viewBox="120 -30 1000 1000" xmlns="http://www.w3.org/2000/svg">
  <path d="M 523.981 49.735 C 534.585 49.735 543.181 58.331 543.181 68.935 L 543.181 721.736 C 543.181 756.142 519.414 783.742 488.666 801.677 C 457.449 819.889 415.586 830.536 370.381 830.536 C 325.176 830.536 283.313 819.889 252.096 801.677 C 221.348 783.742 197.581 756.142 197.581 721.736 C 197.581 687.33 221.348 659.73 252.096 641.795 C 283.313 623.583 325.176 612.936 370.381 612.936 C 415.586 612.936 457.449 623.583 488.666 641.795 C 494.308 645.085 499.715 648.702 504.781 652.624 L 504.781 68.936 C 504.781 58.332 513.377 49.736 523.981 49.736 L 523.981 49.735 Z"></path>
  <path d="M 1006.21 52.158 C 1016.814 52.158 1025.41 60.754 1025.41 71.358 L 1025.41 724.159 C 1025.41 758.565 1001.643 786.165 970.895 804.1 C 939.678 822.312 897.815 832.959 852.61 832.959 C 807.405 832.959 765.542 822.312 734.325 804.1 C 703.577 786.165 679.81 758.565 679.81 724.159 C 679.81 689.753 703.577 662.153 734.325 644.218 C 765.542 626.006 807.405 615.359 852.61 615.359 C 897.815 615.359 939.678 626.006 970.895 644.218 C 976.537 647.508 981.944 651.125 987.01 655.047 L 987.01 71.359 C 987.01 60.755 995.606 52.159 1006.21 52.159 L 1006.21 52.158 Z"></path>
  <path d="M 342.99 830.364 C 340.091 955.854 835.604 970.471 838.772 833.298 L 834.787 883.237 C 832.936 1009.132 343.732 981.809 345.287 876.045"></path>
</svg>