<svg xmlns="http://www.w3.org/2000/svg"
    width="60"
    height="60"
    viewBox="152 68 25 25"><path d="M 163.548 72.03499999999998c 0.12 -0.09 0.21 -0.18 0.21 -0.18l -0.81 4.02l -0.81 4.02c 0.03 0 0.51 -0.27 1.08 -0.6c 0.6 -0.3 1.14 -0.63 1.26 -0.66c 1.14 -0.54 2.31 -0.6 3.09 -0.18c 0.27 0.15 0.54 0.36 0.6 0.51l 0.06 0.12l 0.21 -0.21c 0.9 -0.81 2.22 -0.99 3.12 -0.42c 0.6 0.42 0.9 1.14 0.78 2.07c -0.15 1.29 -1.05 2.31 -1.95 2.25c -0.48 -0.03 -0.78 -0.3 -0.96 -0.81c -0.09 -0.27 -0.09 -0.9 -0.03 -1.2c 0.21 -0.75 0.81 -1.23 1.59 -1.32l 0.24 -0.03l -0.09 -0.12c -0.51 -0.66 -1.62 -0.63 -2.31 0.03c -0.39 0.42 -0.3 0.09 -1.23 4.77l -0.81 4.14c -0.03 0 -0.12 -0.03 -0.21 -0.09c -0.33 -0.15 -0.54 -0.18 -0.99 -0.18c -0.42 0 -0.66 0.03 -1.05 0.18c -0.12 0.06 -0.21 0.09 -0.21 0.09c 0 -0.03 0.36 -1.86 0.81 -4.11c 0.9 -4.47 0.87 -4.26 0.69 -4.53c -0.21 -0.36 -0.66 -0.51 -1.17 -0.36c -0.15 0.06 -2.22 1.14 -2.58 1.38c -0.12 0.09 -0.12 0.09 -0.21 0.6l -0.09 0.51l 0.21 0.24c 0.63 0.75 1.02 1.47 1.2 2.19c 0.06 0.27 0.06 0.36 0.06 0.81c 0 0.42 0 0.54 -0.06 0.78c -0.15 0.54 -0.33 0.93 -0.63 1.35c -0.18 0.24 -0.57 0.63 -0.81 0.78c -0.24 0.15 -0.63 0.36 -0.84 0.42c -0.27 0.06 -0.66 0.06 -0.87 0.03c -0.81 -0.18 -1.32 -1.05 -1.38 -2.46c -0.03 -0.6 0.03 -0.99 0.33 -2.46c 0.21 -1.08 0.24 -1.32 0.21 -1.29c -1.2 0.48 -2.4 0.75 -3.21 0.72c -0.69 -0.06 -1.17 -0.3 -1.41 -0.72c -0.39 -0.75 -0.12 -1.8 0.66 -2.46c 0.24 -0.18 0.69 -0.42 1.02 -0.51c 0.69 -0.18 1.53 -0.15 2.31 0.09c 0.3 0.09 0.75 0.3 0.99 0.45c 0.12 0.09 0.15 0.09 0.15 0.03c 0.03 -0.03 0.33 -1.59 0.72 -3.45c 0.36 -1.86 0.66 -3.42 0.69 -3.45c 0 -0.03 0.03 -0.03 0.21 0.03c 0.21 0.06 0.27 0.06 0.48 0.06c 0.42 -0.03 0.78 -0.18 1.26 -0.48c 0.15 -0.12 0.36 -0.27 0.48 -0.39zm -5.73 7.68c -0.27 -0.03 -0.96 -0.06 -1.2 -0.03c -0.81 0.12 -1.35 0.57 -1.5 1.2c -0.18 0.66 0.12 1.14 0.75 1.29c 0.66 0.12 1.92 -0.12 3.18 -0.66l 0.33 -0.15l 0.09 -0.39c 0.06 -0.21 0.09 -0.42 0.09 -0.45c 0 -0.03 -0.45 -0.3 -0.75 -0.45c -0.27 -0.15 -0.66 -0.27 -0.99 -0.36zm 4.29 3.63c -0.24 -0.39 -0.51 -0.75 -0.51 -0.69c -0.06 0.12 -0.39 1.92 -0.45 2.28c -0.09 0.54 -0.12 1.14 -0.06 1.38c 0.06 0.42 0.21 0.6 0.51 0.57c 0.39 -0.06 0.75 -0.48 0.93 -1.14c 0.09 -0.33 0.09 -1.05 0 -1.38c -0.09 -0.39 -0.24 -0.69 -0.42 -1.02z" fill="currentColor"/></svg>
